<?xml version="1.0" standalone="no"?>
<!DOCTYPE svg PUBLIC "-//W3C//DTD SVG 20010904//EN"
 "http://www.w3.org/TR/2001/REC-SVG-20010904/DTD/svg10.dtd">
<svg version="1.0" xmlns="http://www.w3.org/2000/svg"
 width="1024.000000pt" height="53.000000pt" viewBox="0 0 1024.000000 53.000000"
 preserveAspectRatio="xMidYMid meet">

<g transform="translate(0.000000,53.000000) scale(0.100000,-0.100000)"
fill="#000000" stroke="none">
<path d="M360 264 l0 -175 28 3 27 3 3 173 2 172 -30 0 -30 0 0 -176z"/>
<path d="M997 413 c-4 -3 -7 -21 -7 -40 0 -30 -3 -33 -30 -33 -25 0 -30 -4
-30 -25 0 -21 5 -25 30 -25 l29 0 3 -97 3 -98 28 -3 27 -3 0 85 c0 104 4 116
41 116 24 0 29 4 29 24 0 21 -6 25 -32 28 -30 3 -33 6 -36 41 -3 31 -7 37 -26
37 -12 0 -26 -3 -29 -7z"/>
<path d="M173 335 c-83 -36 -85 -188 -3 -230 37 -19 93 -19 130 0 33 17 36 24
18 48 -11 15 -17 16 -45 5 -39 -14 -86 -2 -91 25 -3 15 6 17 77 17 l81 0 0 41
c0 33 -6 47 -34 75 -38 38 -77 44 -133 19z m92 -65 c18 -20 17 -20 -33 -20
-53 0 -66 11 -34 29 26 16 47 13 67 -9z"/>
<path d="M489 327 c-22 -15 -39 -38 -49 -65 -13 -37 -13 -47 0 -84 27 -76 117
-111 190 -73 27 14 28 18 18 41 -8 17 -16 23 -27 18 -36 -16 -72 -16 -96 0
-39 26 -21 36 66 36 l79 0 0 33 c0 95 -101 148 -181 94z m99 -49 c22 -22 13
-28 -40 -28 -50 0 -51 0 -33 20 20 22 55 26 73 8z"/>
<path d="M753 336 c-60 -27 -87 -103 -60 -169 28 -67 112 -96 177 -62 26 13
57 52 48 59 -26 22 -44 22 -69 4 -35 -26 -78 -14 -98 26 -28 58 31 111 91 81
22 -10 35 -12 49 -4 25 13 24 21 -5 48 -30 28 -91 36 -133 17z"/>
<path d="M1134 336 c-3 -7 -3 -64 -2 -127 l3 -114 30 0 30 0 -3 66 c-4 89 8
116 53 125 32 6 36 10 33 33 -3 25 -6 26 -71 28 -46 1 -70 -2 -73 -11z"/>
<path d="M1341 333 c-87 -43 -85 -185 3 -227 43 -20 78 -20 117 -1 64 34 87
120 49 182 -36 60 -104 78 -169 46z m112 -75 c24 -28 21 -55 -9 -84 -42 -42
-104 -15 -104 46 0 65 69 88 113 38z"/>
</g>
</svg>
